{"title":"Gossip Girl S04E14 HDTV XviD-2HD","uid":6159678,"size":366919612,"categoryP":"video","categoryS":"tv_shows","magnet":"?xt=urn:btih:772afe0b6be4b7bf1dcf17a0cfdcb7f9a74962da&amp;dn=Gossip+Girl+S04E14+HDTV+XviD-2HD&amp;tr=udp%3A%2F%2Ftracker.openbittorrent.com%3A80&amp;tr=udp%3A%2F%2Fopen.demonii.com%3A1337&amp;tr=udp%3A%2F%2Ftracker.coppersurfer.tk%3A6969&amp;tr=udp%3A%2F%2Fexodus.desync.com%3A6969","seeders":1,"leechers":1,"uploader":"TheCloon","files":-1,"time":1297166211,"description":"### TheCloon ###\n\nFeb 7, 2011\n\nGossip Girl S04E14 HDTV XviD-2HD\n\nEpisode 14, Season 4 Plot:\n\n[Video Information]\n\nFormat                           : AVI\nFormat/Info                      : Audio Video Interleave\nFile size                        : 350 MiB\nDuration                         : 41mn 22s\nOverall bit rate                 : 1 182 Kbps\nWriting application              : MEncoder SVN-r32669-4.3.2\nWriting library                  : MPlayer\n\nVideo\nID                               : 0\nFormat                           : MPEG-4 Visual\nFormat profile                   : Advanced Simple@L5\nFormat settings, BVOP            : 1\nFormat settings, QPel            : No\nFormat settings, GMC             : No warppoints\nFormat settings, Matrix          : Default (H.263)\nCodec ID                         : XVID\nCodec ID/Hint                    : XviD\nDuration                         : 41mn 21s\nBit rate                         : 1 042 Kbps\nWidth                            : 624 pixels\nHeight                           : 352 pixels\nDisplay aspect ratio             : 16:9\nFrame rate                       : 23.976 fps\nColor space                      : YUV\nChroma subsampling               : 4:2:0\nBit depth                        : 8 bits\nScan type                        : Progressive\nCompression mode                 : Lossy\nBits/(Pixel*Frame)               : 0.198\nStream size                      : 308 MiB (88%)\nWriting library                  : XviD 1.2.1 (UTC 2008-12-04)\n\nAudio\nID                               : 1\nFormat                           : MPEG Audio\nFormat version                   : Version 1\nFormat profile                   : Layer 3\nMode                             : Joint stereo\nMode extension                   : MS Stereo\nCodec ID                         : 55\nCodec ID/Hint                    : MP3\nDuration                         : 41mn 22s\nBit rate mode                    : Variable\nBit rate                         : 128 Kbps\nChannel(s)                       : 2 channels\nSampling rate                    : 48.0 KHz\nCompression mode                 : Lossy\nStream size                      : 37.7 MiB (11%)\nAlignment                        : Aligned on interleaves\nInterleave, duration             : 24 ms (0.58 video frame)\nInterleave, preload duration     : 539 ms\n\n\n\n[Screenshots]  &lt;a href=&quot;\nhttp://bayimg.com/maDAFAAdm&quot; rel=&quot;nofollow&quot; target=&quot;_NEW&quot;&gt;\nhttp://bayimg.com/maDAFAAdm&lt;/a&gt; &lt;a href=&quot;\nhttp://bayimg.com/MadaGAAdM&quot; rel=&quot;nofollow&quot; target=&quot;_NEW&quot;&gt;\nhttp://bayimg.com/MadaGAAdM&lt;/a&gt;\n\n[TVRage Info URL] &lt;a href=&quot;\nhttp://www.tvrage.com/gossip_girl&quot; rel=&quot;nofollow&quot; target=&quot;_NEW&quot;&gt;\nhttp://www.tvrage.com/gossip_girl&lt;/a&gt;\n","torrent":{"xt":"urn:btih:772afe0b6be4b7bf1dcf17a0cfdcb7f9a74962da","amp;dn":"Gossip+Girl+S04E14+HDTV+XviD-2HD","amp;tr":["udp%3A%2F%2Ftracker.openbittorrent.com%3A80","udp%3A%2F%2Fopen.demonii.com%3A1337","udp%3A%2F%2Ftracker.coppersurfer.tk%3A6969","udp%3A%2F%2Fexodus.desync.com%3A6969"],"infoHash":"772afe0b6be4b7bf1dcf17a0cfdcb7f9a74962da","infoHashBuffer":{"type":"Buffer","data":[119,42,254,11,107,228,183,191,29,207,23,160,207,220,183,249,167,73,98,218]},"announce":[],"urlList":[]}}